<?xml version="1.0" encoding="iso-8859-1"?>
<!-- Uploaded to: SVG Repo, www.svgrepo.com, Generator: SVG Repo Mixer Tools -->
<svg fill="#000000" height="800px" width="800px" version="1.1" id="Layer_1" xmlns="http://www.w3.org/2000/svg" xmlns:xlink="http://www.w3.org/1999/xlink" 
	 viewBox="0 0 512.021 512.021" xml:space="preserve">
<g>
	<g>
		<g>
			<path d="M506.283,278.539l-143.616-74.923v-11.605h32c4.779,0,8.96-3.157,10.261-7.765c1.301-4.587-0.619-9.493-4.672-11.989
				L266.667,90.037v-47.36H288c5.888,0,10.667-4.779,10.667-10.667S293.888,21.344,288,21.344h-21.333V10.677
				c0-5.888-4.779-10.667-10.667-10.667s-10.667,4.779-10.667,10.667v10.667H224c-5.888,0-10.667,4.779-10.667,10.667
				S218.112,42.677,224,42.677h21.333v47.36l-133.611,82.219c-4.075,2.496-5.973,7.403-4.672,11.989
				c1.323,4.608,5.504,7.765,10.283,7.765h32v11.627L5.739,278.56C2.219,280.395,0,284.021,0,288.011v170.667
				c0,5.888,4.779,10.667,10.667,10.667h138.667v32c0,5.888,4.779,10.667,10.667,10.667h42.667c5.888,0,10.667-4.779,10.667-10.667
				v-160c0-23.531,19.136-42.667,42.667-42.667s42.667,19.136,42.667,42.667v160c0,5.888,4.779,10.667,10.667,10.667H352
				c5.888,0,10.667-4.779,10.667-10.667v-32h138.667c5.888,0,10.667-4.779,10.688-10.688V287.989
				C512,284.021,509.781,280.373,506.283,278.539z M149.333,448.011h-128V294.475l128-66.795V448.011z M352,170.677
				c-5.888,0-10.667,4.779-10.667,10.667v309.333H320V341.344c0-35.285-28.715-64-64-64s-64,28.715-64,64v149.333h-21.333v-31.893
				c0-0.043,0-0.064,0-0.107V210.123c0-0.021,0-0.043,0-0.085v-28.693c0-5.888-4.779-10.667-10.667-10.667h-4.992L256,108.533
				l100.949,62.144H352z M490.667,448.011h-128V227.68l128,66.795V448.011z"/>
			<path d="M394.667,405.344h64c5.888,0,10.667-4.779,10.667-10.667v-53.333c0-23.531-19.136-42.667-42.667-42.667
				S384,317.813,384,341.344v53.333C384,400.565,388.779,405.344,394.667,405.344z M405.333,341.344
				c0-11.755,9.579-21.333,21.333-21.333S448,329.589,448,341.344v42.667h-42.667V341.344z"/>
			<path d="M53.333,405.344h64c5.888,0,10.667-4.779,10.667-10.667v-53.333c0-23.531-19.136-42.667-42.667-42.667
				c-23.531,0-42.667,19.136-42.667,42.667v53.333C42.667,400.565,47.445,405.344,53.333,405.344z M64,341.344
				c0-11.755,9.579-21.333,21.333-21.333c11.755,0,21.333,9.579,21.333,21.333v42.667H64V341.344z"/>
		</g>
	</g>
</g>
</svg>